<svg xmlns="http://www.w3.org/2000/svg" viewBox="0 0 512 512">
  <rect width="512" height="512" rx="96" fill="#0e0608"/>
  <rect x="84" y="84" width="344" height="344" rx="36" fill="#1a0c10" stroke="#3d1f28" stroke-width="10"/>
  <path d="M260 126c-18 39-68 77-68 131 0 44 28 77 68 85 40-8 68-41 68-85 0-54-50-92-68-131z" fill="#8b1a2a"/>
  <path d="M255 214c-21 0-38 17-38 38s17 38 38 38 38-17 38-38-17-38-38-38z" fill="#c9a84c" opacity="0.9"/>
  <rect x="245" y="92" width="20" height="54" rx="10" fill="#e8c96e"/>
  <text x="256" y="418" text-anchor="middle" font-size="60" fill="#f0e6e8" font-family="Georgia, serif">ŞD</text>
</svg>
